HIERARCHY
ROOT Hips
{
	OFFSET 0.00000 0.00000 0.00000
	CHANNELS 6 Xposition Yposition Zposition Zrotation Yrotation Xrotation 
	JOINT LHipJoint
	{
		OFFSET 0 0 0
		CHANNELS 3 Zrotation Yrotation Xrotation
		JOINT LeftUpLeg
		{
			OFFSET 1.53927 -1.56553 0.51726
			CHANNELS 3 Zrotation Yrotation Xrotation
			JOINT LeftLeg
			{
				OFFSET 2.38199 -6.54447 0.00000
				CHANNELS 3 Zrotation Yrotation Xrotation
				JOINT LeftFoot
				{
					OFFSET 2.35499 -6.47028 0.00000
					CHANNELS 3 Zrotation Yrotation Xrotation
					JOINT LeftToeBase
					{
						OFFSET 0.13641 -0.37478 1.84251
						CHANNELS 3 Zrotation Yrotation Xrotation
						End Site
						{
							OFFSET 0.00000 -0.00000 0.95212
						}
					}
				}
			}
		}
	}
	JOINT RHipJoint
	{
		OFFSET 0 0 0
		CHANNELS 3 Zrotation Yrotation Xrotation
		JOINT RightUpLeg
		{
			OFFSET -1.43919 -1.56553 0.51726
			CHANNELS 3 Zrotation Yrotation Xrotation
			JOINT RightLeg
			{
				OFFSET -2.34860 -6.45274 0.00000
				CHANNELS 3 Zrotation Yrotation Xrotation
				JOINT RightFoot
				{
					OFFSET -2.25563 -6.19730 0.00000
					CHANNELS 3 Zrotation Yrotation Xrotation
					JOINT RightToeBase
					{
						OFFSET -0.19755 -0.54277 1.84912
						CHANNELS 3 Zrotation Yrotation Xrotation
						End Site
						{
							OFFSET -0.00000 -0.00000 0.97032
						}
					}
				}
			}
		}
	}
	JOINT LowerBack
	{
		OFFSET 0 0 0
		CHANNELS 3 Zrotation Yrotation Xrotation
		JOINT Spine
		{
			OFFSET -0.06402 1.88434 -0.00445
			CHANNELS 3 Zrotation Yrotation Xrotation
			JOINT Spine1
			{
				OFFSET 0.00756 1.88511 0.04237
				CHANNELS 3 Zrotation Yrotation Xrotation
				JOINT Neck
				{
					OFFSET 0 0 0
					CHANNELS 3 Zrotation Yrotation Xrotation
					JOINT Neck1
					{
						OFFSET -0.06230 1.34710 0.03308
						CHANNELS 3 Zrotation Yrotation Xrotation
						JOINT Head
						{
							OFFSET -0.02442 1.34501 -0.13654
							CHANNELS 3 Zrotation Yrotation Xrotation
							End Site
							{
								OFFSET -0.00508 1.35584 -0.05075
							}
						}
					}
				}
				JOINT LeftShoulder
				{
					OFFSET 0 0 0
					CHANNELS 3 Zrotation Yrotation Xrotation
					JOINT LeftArm
					{
						OFFSET 2.76911 0.54460 0.39412
						CHANNELS 3 Zrotation Yrotation Xrotation
						JOINT LeftForeArm
						{
							OFFSET 4.40919 -0.00000 -0.00000
							CHANNELS 3 Zrotation Yrotation Xrotation
							JOINT LeftHand
							{
								OFFSET 3.03857 -0.00000 -0.00000
								CHANNELS 3 Zrotation Yrotation Xrotation
								JOINT LeftFingerBase
								{
									OFFSET 0 0 0
									CHANNELS 3 Zrotation Yrotation Xrotation
									JOINT LeftHandIndex1
									{
										OFFSET 0.52321 -0.00000 -0.00000
										CHANNELS 3 Zrotation Yrotation Xrotation
										End Site
										{
											OFFSET 0.42182 -0.00000 -0.00000
										}
									}
								}
								JOINT LThumb
								{
									OFFSET 0 0 0
									CHANNELS 3 Zrotation Yrotation Xrotation
									End Site
									{
										OFFSET 0.42826 -0.00000 0.42826
									}
								}
							}
						}
					}
				}
				JOINT RightShoulder
				{
					OFFSET 0 0 0
					CHANNELS 3 Zrotation Yrotation Xrotation
					JOINT RightArm
					{
						OFFSET -2.99050 0.75949 0.48975
						CHANNELS 3 Zrotation Yrotation Xrotation
						JOINT RightForeArm
						{
							OFFSET -4.61969 -0.00000 -0.00000
							CHANNELS 3 Zrotation Yrotation Xrotation
							JOINT RightHand
							{
								OFFSET -3.09382 -0.00000 -0.00000
								CHANNELS 3 Zrotation Yrotation Xrotation
								JOINT RightFingerBase
								{
									OFFSET 0 0 0
									CHANNELS 3 Zrotation Yrotation Xrotation
									JOINT RightHandIndex1
									{
										OFFSET -0.50090 -0.00000 -0.00000
										CHANNELS 3 Zrotation Yrotation Xrotation
										End Site
										{
											OFFSET -0.40384 -0.00000 -0.00000
										}
									}
								}
								JOINT RThumb
								{
									OFFSET 0 0 0
									CHANNELS 3 Zrotation Yrotation Xrotation
									End Site
									{
										OFFSET -0.41000 -0.00000 0.41000
									}
								}
							}
						}
					}
				}
			}
		}
	}
}
MOTION
Frames: 15
Frame Time: .0083333
31.6491 16.0454 1.7062 362.6230 -70.8549 -351.8970 0.0000 0.0000 0.0000 -14.9805 -23.8297 -24.0388 3.1927 11.0007 32.2822 0.2404 4.6638 -12.1657 0.0292 1.1025 3.0308 0.0000 0.0000 0.0000 19.4029 7.2402 -13.1843 -2.2796 -9.4258 27.1364 0.6900 -23.7202 -28.7205 -0.3127 3.5947 -9.9390 -4.4601 -0.7292 -1.8656 1.7286 -0.9786 -3.5834 4.2932 -0.3684 -2.5468 5.6980 11.4666 2.2454 -18.8177 15.7572 1.6810 -6.1761 7.7384 2.1198 0.0000 -0.0000 0.0000 -42.9358 31.0300 43.4369 131.4211 -52.4060 -94.9563 -0.0000 -0.0000 14.1897 7.8345 -16.9092 -2.2918 -7.1250 0.0000 -0.0000 -13.2526 13.2437 10.1451 0.0000 -0.0000 0.0000 60.0978 -51.6877 23.9488 -61.8739 56.7889 -35.9046 0.0000 -0.0000 -0.5830 -9.7708 -42.7358 6.6654 7.1250 -0.0000 -0.0000 39.9128 -69.2901 -24.5692
31.6302 16.0390 1.7167 362.7950 -70.2553 -351.9230 0.0000 0.0000 0.0000 -15.0513 -23.9993 -24.1817 3.1999 11.0118 32.3198 0.2940 4.1447 -12.6220 0.0264 1.0481 2.8810 0.0000 0.0000 0.0000 19.3846 7.1612 -13.0652 -2.2524 -9.3732 26.9697 0.7452 -24.1119 -28.9625 -0.3302 3.6933 -10.2152 -4.3970 -0.6369 -1.9158 1.6294 -0.8572 -3.6618 4.1543 -0.3078 -2.6147 6.2592 12.2006 2.9052 -19.0522 16.8171 1.7694 -6.2969 8.2977 2.2389 -0.0000 0.0000 0.0000 -42.6768 30.2651 43.6686 131.4613 -52.3888 -94.9882 -0.0000 -0.0000 14.0736 7.3182 -16.9153 -2.1400 -7.1250 0.0000 -0.0000 -13.5904 13.2722 10.4108 -0.0000 0.0000 0.0000 61.1365 -51.9689 22.7854 -61.7864 56.7675 -35.8315 0.0000 -0.0000 -0.4117 -9.5409 -42.2845 6.4518 7.1250 -0.0000 -0.0000 39.3111 -68.8861 -23.8180
31.6101 16.0346 1.7293 363.0300 -69.6931 -352.0950 0.0000 0.0000 0.0000 -15.2089 -24.0946 -24.2098 3.2053 11.0202 32.3480 0.2722 3.8505 -12.0424 0.0637 1.6287 4.4805 0.0000 0.0000 0.0000 19.3400 7.0218 -12.8835 -2.2300 -9.3296 26.8319 0.7665 -24.3748 -29.2492 -0.3244 3.6611 -10.1252 -4.3277 -0.5057 -1.9373 1.4821 -0.6830 -3.6553 3.9615 -0.2243 -2.6156 6.8457 12.8636 3.0103 -19.3301 17.8346 2.1809 -6.3810 8.7893 2.5549 -0.0000 -0.0000 0.0000 -42.3045 29.4121 43.9042 131.6155 -52.3228 -95.1103 -0.0000 -0.0000 13.8167 6.3606 -16.8386 -1.8495 -7.1250 0.0000 -0.0000 -14.2188 13.4076 10.8818 -0.0000 -0.0000 0.0000 62.4752 -52.1652 21.3659 -61.6966 56.7453 -35.7563 0.0000 -0.0000 -0.1477 -9.7640 -41.3753 6.4892 7.1250 -0.0000 -0.0000 37.4794 -68.2775 -22.0983
31.5965 16.0307 1.7438 363.1700 -69.1079 -352.0920 0.0000 0.0000 0.0000 -15.3043 -24.1283 -24.4131 3.2079 11.0243 32.3617 0.2819 3.2992 -11.7998 0.0928 1.9647 5.4081 0.0000 0.0000 0.0000 19.3010 6.8764 -12.8605 -2.2125 -9.2954 26.7239 0.8410 -24.7577 -29.3493 -0.3571 3.8388 -10.6237 -4.2396 -0.3575 -2.0046 1.3852 -0.4830 -3.6266 3.8101 -0.1291 -2.5686 6.7961 13.5545 2.7795 -19.1044 18.8596 2.7454 -6.1870 9.2574 2.8705 -0.0000 -0.0000 0.0000 -41.8968 28.5724 44.2706 131.8638 -52.2156 -95.3067 -0.0000 -0.0000 13.7164 6.3650 -16.9012 -1.8575 -7.1250 0.0000 -0.0000 -14.2136 13.3464 10.8965 -0.0000 -0.0000 0.0000 63.8123 -52.2317 19.9207 -61.6768 56.7404 -35.7398 0.0000 -0.0000 -0.1014 -9.7429 -41.8469 6.5348 7.1250 -0.0000 -0.0000 38.3200 -68.6258 -22.9377
31.5836 16.0294 1.7543 363.3320 -68.4020 -352.0510 0.0000 0.0000 0.0000 -15.3691 -24.2492 -24.6736 3.2093 11.0263 32.3688 0.3037 2.6412 -11.7218 0.1313 2.3358 6.4346 0.0000 0.0000 0.0000 19.2929 6.7438 -12.8773 -2.1927 -9.2564 26.6006 0.9519 -25.3120 -29.4933 -0.4033 4.0771 -11.2938 -4.1981 -0.2161 -2.1289 1.2967 -0.2903 -3.6203 3.6938 -0.0364 -2.5111 6.6598 14.1868 2.9350 -18.8776 19.7414 2.9096 -6.0316 9.6960 2.9739 -0.0000 0.0000 0.0000 -41.4563 27.5836 44.7176 131.9543 -52.1762 -95.3782 -0.0000 -0.0000 13.6411 6.8499 -16.7386 -1.9815 -7.1250 0.0000 -0.0000 -13.9025 13.4747 10.6038 -0.0000 0.0000 0.0000 65.0897 -52.2648 18.5693 -61.6336 56.7298 -35.7037 0.0000 -0.0000 -0.2545 -9.5192 -42.6945 6.4871 7.1250 -0.0000 -0.0000 40.0903 -69.1786 -24.5954
31.5635 16.0291 1.7622 363.4830 -67.6978 -352.1240 0.0000 0.0000 0.0000 -15.4709 -24.4800 -24.6724 3.2073 11.0233 32.3584 0.3195 2.1039 -11.6592 0.1928 2.8277 7.7993 0.0000 0.0000 0.0000 19.3320 6.5653 -12.6935 -2.1679 -9.2074 26.4462 1.0234 -25.7803 -29.7988 -0.4146 4.1333 -11.4520 -4.2113 -0.1078 -2.2312 1.2032 -0.1413 -3.5782 3.6039 0.0348 -2.4241 7.0389 14.6942 3.4266 -19.1825 20.4562 2.7281 -6.1509 10.0869 3.0063 -0.0000 -0.0000 0.0000 -41.0870 26.5529 45.0489 131.8332 -52.2289 -95.2825 -0.0000 -0.0000 13.5851 7.8520 -16.0449 -2.1829 -7.1250 0.0000 -0.0000 -13.2666 14.0895 9.9124 -0.0000 -0.0000 0.0000 66.2846 -52.2081 17.3666 -61.5313 56.7044 -35.6182 0.0000 -0.0000 -0.2019 -9.5609 -42.7984 6.5285 7.1250 -0.0000 -0.0000 40.2435 -69.2675 -24.7764
31.5455 16.0296 1.7700 363.4820 -67.2520 -352.0700 0.0000 0.0000 0.0000 -15.5217 -24.5655 -24.6844 3.2077 11.0239 32.3604 0.3340 1.7491 -11.6969 0.1706 2.6611 7.3365 0.0000 0.0000 0.0000 19.3861 6.4842 -12.5160 -2.1436 -9.1590 26.2938 1.1057 -26.1454 -29.8532 -0.4347 4.2308 -11.7270 -4.3389 -0.0956 -2.2911 1.3230 -0.1162 -3.4799 3.7997 0.0480 -2.2917 7.0641 15.3465 3.8388 -19.6091 21.3184 2.2843 -6.2449 10.5532 2.9766 0.0000 -0.0000 0.0000 -41.2518 25.9214 44.9201 131.7985 -52.2439 -95.2551 -0.0000 -0.0000 13.6616 7.5805 -16.3313 -2.1431 -7.1250 0.0000 -0.0000 -13.4366 13.8264 10.1240 0.0000 -0.0000 0.0000 66.4642 -51.6621 17.0777 -61.2038 56.6223 -35.3446 0.0000 -0.0000 -0.2237 -9.9559 -42.7957 6.8007 7.1250 -0.0000 -0.0000 39.8375 -69.3936 -24.6057
31.5197 16.0314 1.7775 363.6220 -66.3470 -352.1120 0.0000 0.0000 0.0000 -15.6282 -24.7408 -24.7479 3.2092 11.0262 32.3685 0.3552 1.0681 -11.6974 0.1627 2.5988 7.1636 0.0000 0.0000 0.0000 19.4697 6.3538 -12.2555 -2.1160 -9.1036 26.1200 1.1150 -26.5693 -30.5558 -0.3776 3.9464 -10.9259 -4.5550 -0.2589 -2.5191 1.4906 -0.3147 -3.2994 4.0931 -0.0550 -1.9570 6.8444 15.9770 4.1005 -19.9483 22.1273 1.8397 -6.2739 10.9850 2.9305 0.0000 0.0000 0.0000 -41.5106 25.2242 44.6601 131.7465 -52.2664 -95.2139 -0.0000 -0.0000 13.7039 7.3622 -16.2938 -2.0761 -7.1250 0.0000 -0.0000 -13.5814 13.8769 10.2248 0.0000 0.0000 0.0000 66.4359 -50.9048 17.0268 -60.7813 56.5146 -34.9920 0.0000 -0.0000 -0.4164 -10.2998 -43.1899 7.0899 7.1250 -0.0000 -0.0000 40.2476 -69.7913 -25.2270
31.5089 16.0302 1.7925 363.6070 -65.8061 -351.8860 0.0000 0.0000 0.0000 -15.6344 -24.8174 -25.0377 3.2086 11.0253 32.3651 0.3566 0.7298 -11.5678 0.1796 2.7299 7.5277 0.0000 0.0000 0.0000 19.4749 6.1778 -12.3471 -2.0913 -9.0536 25.9632 1.2618 -27.0292 -30.3483 -0.4548 4.3262 -11.9963 -4.2475 0.0266 -2.6538 1.2189 0.0629 -3.3848 3.6406 0.1261 -2.0059 7.7648 16.0326 4.8901 -20.3014 22.2893 1.7883 -6.5467 11.1219 2.9538 -0.0000 0.0000 0.0000 -40.6680 24.0708 45.3428 131.7104 -52.2819 -95.1854 -0.0000 -0.0000 13.6335 7.3246 -16.1757 -2.0508 -7.1250 0.0000 -0.0000 -13.6103 13.9947 10.2128 -0.0000 0.0000 0.0000 68.1159 -50.9125 15.6100 -60.7417 56.5044 -34.9589 0.0000 -0.0000 -0.3918 -10.3516 -43.7690 7.2015 7.1250 -0.0000 -0.0000 41.3534 -70.2209 -26.3723
31.4960 16.0292 1.8036 363.6130 -65.3266 -351.7860 0.0000 0.0000 0.0000 -15.7051 -24.8093 -25.1441 3.2029 11.0165 32.3354 0.3579 0.4939 -11.4906 0.1666 2.6293 7.2483 0.0000 0.0000 0.0000 19.5132 6.0426 -12.3296 -2.0810 -9.0327 25.8978 1.3744 -27.4458 -30.3207 -0.5127 4.5898 -12.7421 -3.9774 0.3663 -2.5925 0.9027 0.5014 -3.5590 3.1635 0.3429 -2.2545 8.3160 16.2860 5.0699 -19.9954 22.7654 2.4041 -6.4716 11.3460 3.2002 -0.0000 0.0000 0.0000 -39.6601 22.9455 46.2100 131.5673 -52.3435 -95.0721 -0.0000 -0.0000 13.7332 7.4470 -16.1623 -2.0838 -7.1250 0.0000 -0.0000 -13.5301 14.0002 10.1474 -0.0000 0.0000 0.0000 70.0070 -51.1346 14.0305 -60.7632 56.5099 -34.9769 0.0000 -0.0000 -0.0656 -10.4585 -43.6419 7.2601 7.1250 -0.0000 -0.0000 40.9875 -70.1667 -26.0668
31.4803 16.0290 1.8177 363.7740 -64.4605 -351.9520 0.0000 0.0000 0.0000 -15.9372 -24.8701 -25.0865 3.1843 10.9875 32.2379 0.3561 -0.1835 -11.2102 0.2474 3.2004 8.8373 0.0000 0.0000 0.0000 19.5358 5.6415 -12.2309 -2.0855 -9.0420 25.9268 1.3836 -27.6976 -30.7373 -0.4890 4.4839 -12.4421 -3.9450 0.4250 -2.6189 0.8255 0.5807 -3.5330 3.0661 0.3799 -2.2179 8.4071 16.7491 5.1035 -19.6866 23.4739 2.9088 -6.3027 11.6770 3.4194 0.0000 -0.0000 0.0000 -39.3371 21.8340 46.5521 131.1071 -52.5391 -94.7073 -0.0000 -0.0000 13.8495 7.4897 -16.5474 -2.1443 -7.1250 0.0000 -0.0000 -13.4894 13.6208 10.2267 0.0000 -0.0000 0.0000 70.9620 -50.9175 13.1862 -60.5353 56.4509 -34.7869 0.0000 0.0000 0.3092 -10.3965 -43.4777 7.1950 7.1250 -0.0000 -0.0000 40.7192 -70.0293 -25.7599
31.4622 16.0279 1.8318 363.8930 -63.7222 -351.9880 0.0000 0.0000 0.0000 -16.0652 -25.2396 -25.0100 3.1622 10.9531 32.1219 0.3461 -0.4401 -10.9660 0.3472 3.7860 10.4755 0.0000 0.0000 0.0000 19.5493 5.3164 -12.2326 -2.0908 -9.0526 25.9601 1.3829 -27.8724 -31.0746 -0.4680 4.3879 -12.1706 -3.9684 0.5302 -2.8420 0.7895 0.7330 -3.4377 3.0455 0.4508 -2.0067 8.3148 17.1506 4.9414 -19.3701 24.0697 3.3546 -6.1037 11.9428 3.6127 0.0000 -0.0000 0.0000 -39.1966 20.4953 46.8350 130.5008 -52.7915 -94.2252 -0.0000 -0.0000 13.8270 7.3369 -16.7689 -2.1275 -7.1250 0.0000 -0.0000 -13.5827 13.4140 10.3628 0.0000 -0.0000 0.0000 71.8626 -50.4191 12.3402 -60.4779 56.4359 -34.7390 0.0000 0.0000 0.1373 -9.7603 -44.6034 6.8873 7.1250 -0.0000 -0.0000 43.6897 -70.5982 -28.3838
31.4481 16.0381 1.8441 363.9210 -63.2640 -351.7070 0.0000 0.0000 0.0000 -16.0373 -25.3327 -25.3105 3.1463 10.9282 32.0382 0.3493 -0.7664 -10.9215 0.3399 3.7466 10.3647 0.0000 0.0000 0.0000 19.5558 5.3674 -12.4416 -2.0915 -9.0542 25.9651 1.5034 -28.3010 -31.0497 -0.5287 4.6594 -12.9397 -3.9857 0.6563 -3.1621 0.8240 0.9144 -3.4359 3.0968 0.5387 -1.8415 8.0646 17.5254 4.9945 -19.1439 24.5773 3.4827 -5.9555 12.1902 3.6547 -0.0000 0.0000 0.0000 -39.3336 19.2146 47.0523 129.7212 -53.1073 -93.6030 -0.0000 -0.0000 13.8248 7.2889 -16.2900 -2.0547 -7.1250 0.0000 -0.0000 -13.6299 13.8852 10.2611 -0.0000 0.0000 0.0000 72.2986 -49.6907 11.8968 -60.5032 56.4426 -34.7601 0.0000 -0.0000 -0.3995 -9.0563 -45.9693 6.5374 7.1250 -0.0000 -0.0000 47.4339 -71.2482 -31.7697
31.4306 16.0379 1.8545 363.9280 -62.5009 -352.1220 0.0000 0.0000 0.0000 -16.3511 -25.2849 -24.7870 3.1459 10.9275 32.0359 0.3684 -1.3615 -11.0704 0.3179 3.6244 10.0224 0.0000 0.0000 0.0000 19.7007 5.0544 -11.7966 -2.0823 -9.0355 25.9064 1.5264 -28.6230 -31.5135 -0.5048 4.5545 -12.6422 -3.0211 1.6950 -2.5401 -0.3316 2.2206 -4.2176 1.3449 1.1746 -3.0196 10.9689 16.2924 8.5461 -19.1996 23.2112 3.2539 -6.8258 11.7696 3.1637 -0.0000 -0.0000 0.0000 -36.5051 16.3460 50.5959 128.4991 -53.5832 -92.6226 -0.0000 -0.0000 13.3882 7.1303 -15.7993 -1.9507 -7.1250 0.0000 -0.0000 -13.7521 14.3744 10.2114 -0.0000 -0.0000 0.0000 77.7785 -51.6748 7.3357 -60.6948 56.4922 -34.9198 0.0000 -0.0000 -0.4136 -8.7283 -46.4044 6.3446 7.1250 -0.0000 -0.0000 48.7675 -71.4035 -32.9377
31.4157 16.0283 1.8687 363.8930 -61.7705 -352.0850 0.0000 0.0000 0.0000 -16.4604 -25.3384 -24.8006 3.1539 10.9401 32.0782 0.3802 -2.0323 -11.1208 0.3491 3.7964 10.5045 0.0000 0.0000 0.0000 19.7694 4.6578 -11.6701 -2.0637 -8.9975 25.7875 1.6542 -29.0108 -31.3878 -0.5686 4.8293 -13.4224 -3.8821 0.8648 -2.7471 0.8402 1.1806 -3.3376 3.0519 0.6733 -1.9923 7.8949 17.8866 5.2874 -18.5658 25.1228 4.0940 -5.7233 12.4528 3.7687 -0.0000 0.0000 0.0000 -39.1594 16.5968 48.0584 127.8614 -53.8225 -92.1086 -0.0000 -0.0000 13.5531 7.1928 -15.9756 -1.9893 -7.1250 0.0000 -0.0000 -13.7043 14.1983 10.2266 -0.0000 0.0000 0.0000 73.5084 -48.5559 10.6915 -59.4280 56.1556 -33.8656 0.0000 -0.0000 -0.3366 -9.0822 -46.1294 6.5739 7.1250 -0.0000 -0.0000 47.7882 -71.3572 -32.1434
